<svg xmlns="http://www.w3.org/2000/svg" width="374.608" height="66.381" viewBox="0 0 374.608 66.381">
  <g id="Group_2" data-name="Group 2" transform="translate(-63.78 -127.455)">
    <path id="Path_1" data-name="Path 1" d="M117.9,165.592q2.566.155,2.566,2.311a2.083,2.083,0,0,1-1,1.874,4.787,4.787,0,0,1-2.85.541l-1.386-.1q-8.628-.616-8.628-9.246v-11.2H104.03a3.257,3.257,0,0,1-2.131-.615,2.544,2.544,0,0,1,0-3.6,3.257,3.257,0,0,1,2.131-.615H106.6v-4.726a2.888,2.888,0,0,1,.872-2.208,3.308,3.308,0,0,1,2.364-.822,3.232,3.232,0,0,1,2.309.822,2.881,2.881,0,0,1,.875,2.208v4.726h4.366a3.265,3.265,0,0,1,2.131.615,2.544,2.544,0,0,1,0,3.6,3.265,3.265,0,0,1-2.131.615h-4.366v11.661q0,3.8,3.491,4.056l1.389.1Zm25.782-2.415a1.725,1.725,0,0,1,1.413.67,2.764,2.764,0,0,1,.538,1.8,3.113,3.113,0,0,1-1.9,2.67,17.107,17.107,0,0,1-3.953,1.567,16.409,16.409,0,0,1-4.212.589q-6.062,0-9.606-3.491t-3.544-9.554a14.674,14.674,0,0,1,1.54-6.831,11.2,11.2,0,0,1,4.342-4.623,12.32,12.32,0,0,1,6.343-1.643,11.388,11.388,0,0,1,5.906,1.49,10.1,10.1,0,0,1,3.9,4.212,13.974,13.974,0,0,1,1.386,6.42q0,2.209-1.951,2.208H128.736a8.081,8.081,0,0,0,2,5.214,6.75,6.75,0,0,0,4.933,1.67,9.364,9.364,0,0,0,2.9-.411,28.715,28.715,0,0,0,2.85-1.132,5.7,5.7,0,0,1,2.259-.822Zm-8.886-14.33a5.5,5.5,0,0,0-4.186,1.646,7.744,7.744,0,0,0-1.874,4.724h11.608a7.33,7.33,0,0,0-1.54-4.75,5.084,5.084,0,0,0-4.008-1.619Zm27.428,21.623a13.306,13.306,0,0,1-6.6-1.591,10.847,10.847,0,0,1-4.39-4.52,15.727,15.727,0,0,1,.074-13.739,11.449,11.449,0,0,1,4.546-4.649,13.544,13.544,0,0,1,6.73-1.643,15.057,15.057,0,0,1,4.032.565,13.271,13.271,0,0,1,3.568,1.543,3.174,3.174,0,0,1,1.644,2.722,2.888,2.888,0,0,1-.538,1.824,1.706,1.706,0,0,1-1.413.692,3.037,3.037,0,0,1-1.18-.257,9.867,9.867,0,0,1-1.235-.618,13.935,13.935,0,0,0-2.158-1.052,6.74,6.74,0,0,0-2.36-.384,6,6,0,0,0-4.907,2.081,11.176,11.176,0,0,0,0,11.915,6,6,0,0,0,4.907,2.081,6.39,6.39,0,0,0,2.285-.384A19.109,19.109,0,0,0,167.462,164a9.886,9.886,0,0,1,1.336-.692,2.979,2.979,0,0,1,1.129-.233,1.7,1.7,0,0,1,1.386.721,2.8,2.8,0,0,1,.567,1.8,2.9,2.9,0,0,1-.387,1.516,3.463,3.463,0,0,1-1.257,1.156,13.529,13.529,0,0,1-3.7,1.617,15.983,15.983,0,0,1-4.315.589Zm28.61-26.142q8.834,0,8.833,10.325v12.634a3.01,3.01,0,0,1-.846,2.261,3.221,3.221,0,0,1-2.338.819,3.3,3.3,0,0,1-2.362-.819,2.947,2.947,0,0,1-.875-2.261V154.652a5.939,5.939,0,0,0-1.105-3.981,4.377,4.377,0,0,0-3.465-1.257,5.861,5.861,0,0,0-4.445,1.744,6.5,6.5,0,0,0-1.668,4.676v11.452a2.947,2.947,0,0,1-.875,2.261,3.3,3.3,0,0,1-2.362.819,3.211,3.211,0,0,1-2.336-.819,2.993,2.993,0,0,1-.848-2.261V136.573a2.787,2.787,0,0,1,.9-2.158,3.327,3.327,0,0,1,2.336-.822,3.369,3.369,0,0,1,2.311.769,2.661,2.661,0,0,1,.875,2.107v11.968a8.4,8.4,0,0,1,3.414-3.056,10.8,10.8,0,0,1,4.856-1.055Zm49.305,2a2.855,2.855,0,0,1,1.055-1.386,2.673,2.673,0,0,1,1.514-.461,3.232,3.232,0,0,1,2.131.8,2.48,2.48,0,0,1,.954,1.978,2.625,2.625,0,0,1-.26,1.182l-8.475,19.876a3.057,3.057,0,0,1-1.259,1.49,3.535,3.535,0,0,1-1.874.514,3.457,3.457,0,0,1-1.824-.514,3.065,3.065,0,0,1-1.257-1.49l-6.113-14.688-5.906,14.688a3.074,3.074,0,0,1-1.261,1.49,3.62,3.62,0,0,1-3.72,0,3.022,3.022,0,0,1-1.285-1.49l-8.424-19.876a3.242,3.242,0,0,1-.257-1.132,2.555,2.555,0,0,1,1.028-2.028,3.471,3.471,0,0,1,2.259-.848,2.876,2.876,0,0,1,1.591.461,2.782,2.782,0,0,1,1.081,1.389l6.06,15.666,6.214-15.512a3.087,3.087,0,0,1,5.755,0L234.13,162l6.009-15.664Zm20.546-2q5.24,0,7.78,2.6t2.545,7.884v12.533a2.9,2.9,0,0,1-.822,2.182,3.107,3.107,0,0,1-2.261.8,3.009,3.009,0,0,1-2.184-.822,2.881,2.881,0,0,1-.846-2.158V166.21a6.692,6.692,0,0,1-2.749,3.133,8.243,8.243,0,0,1-4.339,1.127,10.083,10.083,0,0,1-4.572-1.024A8.181,8.181,0,0,1,250,166.62a7.14,7.14,0,0,1-1.182-4.008,6.346,6.346,0,0,1,1.413-4.363,8.456,8.456,0,0,1,4.6-2.311,41.6,41.6,0,0,1,8.785-.721H264.9v-1.18a5.265,5.265,0,0,0-1.079-3.674,4.587,4.587,0,0,0-3.494-1.156,11.148,11.148,0,0,0-3.028.435q-1.543.44-3.65,1.259a5.145,5.145,0,0,1-1.949.668,1.934,1.934,0,0,1-1.516-.668,2.532,2.532,0,0,1-.591-1.744,2.629,2.629,0,0,1,.435-1.516,4.111,4.111,0,0,1,1.466-1.206,16.723,16.723,0,0,1,4.289-1.543,22.221,22.221,0,0,1,4.9-.565Zm-1.591,21.522a5.482,5.482,0,0,0,4.183-1.72,6.227,6.227,0,0,0,1.62-4.443v-1.079h-.925a35.637,35.637,0,0,0-5.341.308,5.194,5.194,0,0,0-2.722,1.079,2.749,2.749,0,0,0-.822,2.107,3.487,3.487,0,0,0,1.156,2.7,4.075,4.075,0,0,0,2.852,1.052Zm32.459-21.419a2.756,2.756,0,0,1,2.1.565,2.505,2.505,0,0,1,.771,2,2.8,2.8,0,0,1-.668,2.054,4.086,4.086,0,0,1-2.412.872l-1.543.156a6.232,6.232,0,0,0-4.443,2.054,6.723,6.723,0,0,0-1.413,4.366v10.784a2.848,2.848,0,0,1-.923,2.285,3.409,3.409,0,0,1-2.312.8,3.3,3.3,0,0,1-2.285-.8,2.888,2.888,0,0,1-.9-2.285V147.41a2.752,2.752,0,0,1,.9-2.208,3.306,3.306,0,0,1,2.232-.771,3.084,3.084,0,0,1,2.158.745,2.733,2.733,0,0,1,.822,2.131v2.054a7.6,7.6,0,0,1,2.9-3.491,8.872,8.872,0,0,1,4.291-1.386l.718-.053Zm25.016,18.747a1.732,1.732,0,0,1,1.413.67,2.778,2.778,0,0,1,.538,1.8,3.118,3.118,0,0,1-1.9,2.67,17.169,17.169,0,0,1-3.955,1.567,16.409,16.409,0,0,1-4.212.589q-6.062,0-9.6-3.491t-3.544-9.554a14.644,14.644,0,0,1,1.54-6.831,11.2,11.2,0,0,1,4.339-4.623,12.32,12.32,0,0,1,6.343-1.643,11.382,11.382,0,0,1,5.906,1.49,10.1,10.1,0,0,1,3.9,4.212,13.974,13.974,0,0,1,1.386,6.42q0,2.209-1.951,2.208H301.622a8.069,8.069,0,0,0,2,5.214,6.74,6.74,0,0,0,4.931,1.67,9.364,9.364,0,0,0,2.9-.411,28.724,28.724,0,0,0,2.85-1.132,5.686,5.686,0,0,1,2.261-.822Zm-8.888-14.33a5.508,5.508,0,0,0-4.186,1.646,7.758,7.758,0,0,0-1.874,4.724H313.23a7.3,7.3,0,0,0-1.543-4.75,5.075,5.075,0,0,0-4.005-1.619Zm18.646,21.471a1.63,1.63,0,0,1-1.156-.411,1.547,1.547,0,0,1-.437-1.182V135.185a1.541,1.541,0,0,1,.437-1.18,1.609,1.609,0,0,1,1.156-.411,1.462,1.462,0,0,1,1.54,1.591v33.541a1.462,1.462,0,0,1-1.54,1.593ZM346,144.534q4.523,0,6.754,2.362t2.235,7.141v14.635a1.617,1.617,0,0,1-.411,1.158,1.684,1.684,0,0,1-2.259,0,1.607,1.607,0,0,1-.411-1.158v-3.08a8.1,8.1,0,0,1-3.136,3.571,8.86,8.86,0,0,1-4.724,1.257,9.98,9.98,0,0,1-4.419-.973,7.818,7.818,0,0,1-3.157-2.722,6.858,6.858,0,0,1-1.158-3.854,6.1,6.1,0,0,1,1.439-4.315,8.776,8.776,0,0,1,4.777-2.206,49.832,49.832,0,0,1,9.3-.67h1.081v-1.9q0-3.392-1.389-4.957a5.541,5.541,0,0,0-4.366-1.567,14.211,14.211,0,0,0-7.244,2c-.1.07-.365.25-.8.541a2.074,2.074,0,0,1-1.1.437,1.069,1.069,0,0,1-.846-.387,1.394,1.394,0,0,1-.336-.949q0-1.132,1.8-2.208a16.083,16.083,0,0,1,4.008-1.593,17.534,17.534,0,0,1,4.366-.565ZM344.3,167.7a7.185,7.185,0,0,0,5.469-2.259,8.043,8.043,0,0,0,2.134-5.752v-1.7h-.98a52.506,52.506,0,0,0-7.547.411,7.1,7.1,0,0,0-3.7,1.413,3.762,3.762,0,0,0-1.079,2.9,4.5,4.5,0,0,0,1.644,3.568A6,6,0,0,0,344.3,167.7Zm30.559-23.163a10.627,10.627,0,0,1,5.805,1.593,10.521,10.521,0,0,1,3.9,4.493,15.487,15.487,0,0,1,1.389,6.752,15.974,15.974,0,0,1-1.389,6.86,10.652,10.652,0,0,1-3.9,4.57,10.5,10.5,0,0,1-5.805,1.617,10.1,10.1,0,0,1-5.238-1.31,8.209,8.209,0,0,1-3.337-3.825v3.388a1.628,1.628,0,0,1-.411,1.158,1.479,1.479,0,0,1-1.132.435,1.5,1.5,0,0,1-1.593-1.593V135.185a1.5,1.5,0,0,1,1.593-1.591,1.479,1.479,0,0,1,1.132.435,1.634,1.634,0,0,1,.411,1.156v14.484a8.209,8.209,0,0,1,3.337-3.825,10.1,10.1,0,0,1,5.238-1.31Zm-.411,23.113a7.369,7.369,0,0,0,6.089-2.722q2.181-2.721,2.182-7.552t-2.182-7.473a7.524,7.524,0,0,0-6.139-2.643,7.2,7.2,0,0,0-6.009,2.67q-2.1,2.671-2.1,7.552T368.419,165A7.306,7.306,0,0,0,374.453,167.646Z" transform="translate(52.428 8.612)" fill="#1a1311" fill-rule="evenodd"/>
    <g id="Group_1" data-name="Group 1" transform="translate(63.78 127.455)">
      <path id="Path_2" data-name="Path 2" d="M103.608,140.731h13.276V127.455H63.78v39.828H77.056V140.731h26.552Z" transform="translate(-63.78 -127.455)" fill="#feb127" fill-rule="evenodd"/>
      <path id="Path_3" data-name="Path 3" d="M93.632,140.731v13.275H80.356v26.553H93.632v13.276h13.276V127.455H93.632Z" transform="translate(-40.527 -127.455)" fill="#da2a80" fill-rule="evenodd"/>
      <path id="Path_4" data-name="Path 4" d="M103.608,165.058H90.333V138.5H77.056v13.276H63.78v26.553h53.1V165.058Z" transform="translate(-63.78 -111.953)" fill="#00a2e9" fill-rule="evenodd"/>
      <rect id="Rectangle_1" data-name="Rectangle 1" width="13.276" height="13.276" transform="translate(53.104)" fill="#ab3614"/>
      <rect id="Rectangle_2" data-name="Rectangle 2" width="13.276" height="13.276" transform="translate(0 26.552)" fill="#04665c"/>
      <rect id="Rectangle_3" data-name="Rectangle 3" width="13.276" height="13.276" transform="translate(39.828 53.104)" fill="#382668"/>
    </g>
  </g>
</svg>
